<svg id="Layer_1" enable-background="new 0 0 512.002 512.002" height="512" viewBox="0 0 512.002 512.002" width="512" xmlns="http://www.w3.org/2000/svg">
    <g>
        <g>
            <path clip-rule="evenodd" d="m295.267 456.001v-160h-58.532c-10.999 0-20-9.001-20-20v-60.001h-161.469c-11 0-20 9-20 20v79.487l-21.581 21.581c-4.913 4.913-4.913 12.951 0 17.864l21.581 21.581v79.487c0 11 9.001 20 20 20h220.001c10.999.001 20-9 20-19.999z" fill="#ffe0e6" fill-rule="evenodd"/>
            <path clip-rule="evenodd" d="m236.735 296.002h58.532 161.469c10.999 0 20-8.999 20-20v-79.488l21.581-21.58c4.913-4.913 4.913-12.952 0-17.865l-21.581-21.581v-79.487c0-11-9-20-20-20h-220.001c-11 0-20 9.001-20 20v160 60.001c0 10.999 9.001 20 20 20z" fill="#fff" fill-rule="evenodd"/>
            <g><path d="m416.734 96.001h-139.997c-5.523 0-10-4.478-10-10s4.477-10 10-10h139.997c5.523 0 10 4.478 10 10s-4.477 10-10 10z" fill="#e3eaef"/>
            </g>
            <g>
                <path d="m416.734 136.001h-139.997c-5.523 0-10-4.478-10-10s4.477-10 10-10h139.997c5.523 0 10 4.478 10 10s-4.477 10-10 10z" fill="#e3eaef"/>
        </g>
            <g>
                <path d="m416.734 176.001h-139.997c-5.523 0-10-4.478-10-10s4.477-10 10-10h139.997c5.523 0 10 4.478 10 10s-4.477 10-10 10z" fill="#e3eaef"/>
            </g>
            <g>
                <path d="m416.734 216.001h-69.999c-5.523 0-10-4.478-10-10s4.477-10 10-10h69.999c5.523 0 10 4.478 10 10s-4.477 10-10 10z" fill="#e3eaef"/>
            </g>
            <g>
                <path d="m416.734 256.001h-69.999c-5.523 0-10-4.478-10-10s4.477-10 10-10h69.999c5.523 0 10 4.478 10 10s-4.477 10-10 10z" fill="#e3eaef"/>
            </g>
            <g>
                <path d="m165.266 276h-69.998c-5.523 0-10-4.478-10-10s4.477-10 10-10h69.998c5.523 0 10 4.478 10 10s-4.477 10-10 10z" fill="#ffbecb"/>
            </g>
            <g>
                <path d="m165.266 316h-69.998c-5.523 0-10-4.478-10-10s4.477-10 10-10h69.998c5.523 0 10 4.478 10 10s-4.477 10-10 10z" fill="#ffbecb"/>
            </g>
            <g>
                <path d="m235.265 356h-139.997c-5.523 0-10-4.478-10-10s4.477-10 10-10h139.997c5.523 0 10 4.478 10 10s-4.477 10-10 10z" fill="#ffbecb"/>
            </g>
            <g>
                <path d="m235.265 396h-139.997c-5.523 0-10-4.478-10-10s4.477-10 10-10h139.997c5.523 0 10 4.478 10 10s-4.477 10-10 10z" fill="#ffbecb"/>
            </g>
            <g>
                <path d="m235.265 436h-139.997c-5.523 0-10-4.478-10-10s4.477-10 10-10h139.997c5.523 0 10 4.478 10 10s-4.477 10-10 10z" fill="#ffbecb"/>
            </g>
        </g>
        <path d="m505.388 149.999-18.652-18.652v-75.347c0-16.542-13.458-29.999-30-29.999h-220.001c-16.542 0-30 13.457-30 29.999v150h-151.469c-16.542 0-30 13.458-30 30v75.345l-18.652 18.653c-4.265 4.264-6.614 9.948-6.614 16.002 0 6.056 2.349 11.739 6.614 16.004l18.652 18.652v75.345c0 16.542 13.458 29.999 30 29.999h220.001c16.542 0 30-13.457 30-29.999v-150h151.469c16.542 0 30-13.458 30-30v-75.345l18.652-18.651c4.265-4.266 6.614-9.948 6.614-16.004s-2.349-11.739-6.614-16.002zm-220.121 306.002c0 5.514-4.486 9.999-10 9.999h-220.001c-5.514 0-10-4.485-10-9.999v-79.487c0-2.652-1.054-5.195-2.929-7.071l-21.581-21.581c-.657-.657-.756-1.448-.756-1.862s.098-1.203.755-1.86l21.582-21.581c1.875-1.876 2.929-4.419 2.929-7.071v-79.488c0-5.514 4.486-10 10-10h151.469v50.001c0 16.542 13.458 30 30 30h48.532zm205.979-288.138-21.581 21.58c-1.875 1.875-2.929 4.419-2.929 7.071v79.487c0 5.514-4.486 10-10 10h-220.001c-5.514 0-10-4.486-10-10v-220.001c0-5.514 4.486-9.999 10-9.999h220.001c5.514 0 10 4.485 10 9.999v79.487c0 2.652 1.054 5.195 2.929 7.071l21.582 21.583c.657.656.755 1.447.755 1.859-.001.415-.099 1.206-.756 1.863z" fill="#ff5d7d"/>
    </g>
</svg>
